<?xml version="1.0" encoding="utf-8"?>
<!-- Generator: Adobe Illustrator 23.0.2, SVG Export Plug-In . SVG Version: 6.00 Build 0)  -->
<svg version="1.1" id="Calque_1" xmlns="http://www.w3.org/2000/svg" xmlns:xlink="http://www.w3.org/1999/xlink" x="0px" y="0px"
	 viewBox="0 0 38.6 39.2" style="enable-background:new 0 0 38.6 39.2;" xml:space="preserve">
<style type="text/css">
	.st0{fill:#FFFFFF;}
</style>
<g>
	<path class="st0" d="M18.2,8.3c0.3,0.1,0.8,0.2,1.2,0.3c0.3-0.1,0.8-0.2,1.2-0.3c0-0.1,0-5,4.7-5c0.6,0,1.2-0.5,1.2-1.2
		c0-0.6-0.6-1.2-1.2-1.2C18.3,1,18.2,8.2,18.2,8.3z"/>
	<path class="st0" d="M18.2,6.8c0-3.3-2.6-5.8-5.8-5.8C12.4,4.2,14.9,6.8,18.2,6.8z"/>
	<path class="st0" d="M19.4,11.1c-1.2-0.5-2.4-0.8-3.8-0.8c-6.3,0-11.4,6.3-11.4,14c0,8.6,6.4,15.4,13.5,13.7
		c-3.5-6.3-0.7-16-0.6-16.4c0.2-0.6,0.8-0.9,1.4-0.8c0.6,0.2,0.9,0.8,0.8,1.4c-1.3,4.3-1.9,11.8,1,15.5c7.5,2.3,14.2-4.8,14.2-13.5
		C34.5,14.7,26.8,7.8,19.4,11.1z"/>
</g>
</svg>
