<?xml version="1.0" encoding="utf-8"?>
<!-- Generator: Adobe Illustrator 23.0.2, SVG Export Plug-In . SVG Version: 6.00 Build 0)  -->
<svg version="1.1" id="Calque_1" xmlns="http://www.w3.org/2000/svg" xmlns:xlink="http://www.w3.org/1999/xlink" x="0px" y="0px"
	 viewBox="0 0 38.6 39.2" style="enable-background:new 0 0 38.6 39.2;" xml:space="preserve">
<style type="text/css">
	.st0{fill:#FFFFFF;}
</style>
<g>
	<path class="st0" d="M12.3,22c-0.2-0.7,0.8-0.9,1-0.2c0,0,2.9,11,19.9,9.8c0.7,0,0.7,1,0.1,1C15.3,33.8,12.3,22,12.3,22z
		 M21.7,16.2c-1.4-0.1-3.5-0.2-4.6,0.8c2.9,3.4,6.6,6,10.5,8C26.9,21.5,25.1,17.9,21.7,16.2z M16.5,18c-0.2,0.5-0.3,1.1-0.2,1.8
		c0.6,0.2,0.4,1.1-0.3,1c-5.1-0.9-5.9,2.9-5.9,7.1c3.2,3.4,7.3,6,11.8,7.2c2.9,0.8,15.4,1.6,15.7-3c0.2-2.6-7.2-4.6-9.5-5.6
		C24.2,24.9,19.2,21.1,16.5,18z M15.2,19.6c-0.1-1,0.2-1.9,0.5-2.5C12.3,12.8,9.4,3,6.5,2.2C0.4,0.7,2.9,16.2,4.6,19.9
		C6.9,19.1,10.4,18.8,15.2,19.6z M16.4,16.3c0.5-0.4,1-0.7,1.6-0.8c-0.7,0-1.4,0-2.2,0.1C16,15.8,16.2,16.1,16.4,16.3z M11.8,20.2
		C1.9,19.5-2,24.7,3.5,33.1c2.3,3.6,6.5,6.9,5.8-0.1C8.9,29.3,8.3,22.3,11.8,20.2z"/>
</g>
</svg>
