<?xml version="1.0" encoding="utf-8"?>
<!-- Generator: Adobe Illustrator 23.0.2, SVG Export Plug-In . SVG Version: 6.00 Build 0)  -->
<svg version="1.1" id="Calque_1" xmlns="http://www.w3.org/2000/svg" xmlns:xlink="http://www.w3.org/1999/xlink" x="0px" y="0px"
	 viewBox="0 0 38.6 39.2" style="enable-background:new 0 0 38.6 39.2;" xml:space="preserve">
<style type="text/css">
	.st0{fill:#FFFFFF;}
</style>
<g>
	<path class="st0" d="M16.7,32.7v1.7h1.9v1.3h-1.9v1.9h5.1v-5C20.2,33.3,18.4,33.3,16.7,32.7z"/>
	<path class="st0" d="M5.1,12.3c0.3-0.2,0.5-0.5,0.8-0.7c-0.1-0.8-0.1-1.6,0.1-2.3H3.9V8h2.7c0-0.1,0.1-0.1,0.1-0.2L5.5,6.8H2.6V5.5
		h1.7L2.8,4l0.9-0.9l1.5,1.5V2.9h1.3v2.9l0.9,0.9c0.1-0.1,0.2-0.3,0.4-0.4V4.2H9v1.2c0.7-0.4,1.5-0.7,2.3-0.8
		c-0.1-0.1-0.2-0.3-0.4-0.4c-2.1-2.1-5-3-7.9-2.4L1.7,2L1.5,3.4C1.3,3.9,1.3,4.5,1.3,5.1c0,2.3,0.9,4.6,2.6,6.2
		C4.2,11.7,4.7,12,5.1,12.3z"/>
	<path class="st0" d="M9,32.5H7.7v-2.3c-0.1-0.1-0.2-0.2-0.3-0.3l-1,1v2.9H5.1v-1.7l-1.5,1.5l-0.9-0.9l1.5-1.5H2.6v-1.3h2.9l1.2-1.2
		c0,0,0-0.1-0.1-0.1H3.9v-1.3h2.3c-0.2-0.8-0.3-1.7-0.2-2.5c-0.2-0.2-0.5-0.4-0.7-0.6c-3,1.9-4.5,5.5-3.8,9l0.3,1.3L3,34.9
		c0.6,0.1,1.1,0.2,1.7,0.2c2.3,0,4.6-0.9,6.2-2.6c0.2-0.2,0.3-0.4,0.5-0.5c-0.9-0.1-1.7-0.4-2.4-0.8V32.5z"/>
	<path class="st0" d="M29.6,4.2h1.3v2.2c0.1,0.1,0.2,0.3,0.4,0.4l0.9-0.9V2.9h1.3v1.7l1.5-1.5L35.8,4l-1.5,1.5H36v1.3h-2.9L32,7.9
		C32,7.9,32,8,32,8h2.7v1.3h-2.2c0.2,0.8,0.2,1.6,0.1,2.3c0.3,0.2,0.5,0.4,0.8,0.7c3-1.9,4.4-5.5,3.7-9L36.9,2l-1.3-0.3
		c-0.6-0.1-1.1-0.2-1.7-0.2c-2.3,0-4.6,0.9-6.2,2.6c-0.1,0.1-0.2,0.3-0.4,0.4c0.8,0.1,1.6,0.4,2.3,0.8V4.2z"/>
	<path class="st0" d="M31.4,25.7c0-0.3,0-0.7-0.1-1c0-0.3,0.1-0.5,0.3-0.7c3.2-2,4.1-6.3,2-9.5c-0.5-0.8-1.2-1.5-2-2
		c-0.2-0.1-0.3-0.4-0.3-0.7c0.1-0.3,0.1-0.7,0.1-1c0-2.7-2.2-5-4.9-5c-0.5,0-1,0.1-1.5,0.3c-0.3,0.1-0.5,0-0.7-0.2
		C22,3.1,17.9,2.7,15.2,5c-0.3,0.3-0.6,0.6-0.9,0.9c-0.2,0.2-0.4,0.3-0.7,0.2c-0.5-0.2-1-0.3-1.5-0.3c-2.7,0-4.9,2.3-4.9,5
		c0,0.3,0,0.7,0.1,1c0,0.3-0.1,0.5-0.3,0.7c-3.2,2-4.1,6.3-2,9.5c0.5,0.8,1.2,1.5,2,2c0.2,0.1,0.3,0.4,0.3,0.7
		c-0.1,0.3-0.1,0.7-0.1,1c0,2.7,2.2,5,4.9,5c0.8,0,1.5-0.2,2.2-0.6c0.2-0.1,0.5-0.1,0.7,0.1c2.4,2.1,6.1,2.1,8.5,0
		c0.2-0.2,0.5-0.2,0.7-0.1c0.7,0.4,1.5,0.6,2.2,0.6C29.2,30.7,31.4,28.4,31.4,25.7z M31.5,18.3h1.3v1.3h-1.3V18.3z M7.7,19H6.4v-1.3
		h1.3V19z M10.3,21.5H9v-1.3h1.3V21.5z M12.2,28h-1.3v-1.3h1.3V28z M12.2,15.8h-1.3v-1.3h1.3V15.8z M12.2,10h-1.3V8.7h1.3V10z
		 M14.8,10.6V9.3h1.3v1.3H14.8z M17.4,27.3h-1.3v-1.3h1.3V27.3z M22.5,12.5h1.3v1.3h-1.3V12.5z M22.5,20.9h1.3v1.3h-1.3V20.9z
		 M24.4,27.3h-1.3v-1.3h1.3V27.3z M25.1,8.7h1.3V10h-1.3V8.7z M27.7,24.8h-1.3v-1.3h1.3V24.8z M28.9,13.2h-1.3v-1.3h1.3V13.2z"/>
	<path class="st0" d="M34.7,25.4c-0.4-0.4-0.9-0.8-1.4-1.1c-0.2,0.2-0.5,0.4-0.7,0.6c0.1,0.8,0,1.7-0.2,2.5h2.3v1.3H32
		c0,0,0,0.1-0.1,0.1l1.2,1.2H36v1.3h-1.7l1.5,1.5l-0.9,0.9l-1.5-1.5v1.7h-1.3v-2.9l-1-1c-0.1,0.1-0.2,0.2-0.3,0.3v2.3h-1.3v-1.3
		c-0.7,0.4-1.6,0.7-2.4,0.8c0.2,0.2,0.3,0.4,0.5,0.5c2.1,2.1,5,3,7.9,2.4l1.3-0.3l0.3-1.3c0.1-0.6,0.2-1.1,0.2-1.7
		C37.3,29.3,36.4,27,34.7,25.4z"/>
</g>
</svg>
