<?xml version="1.0" encoding="utf-8"?>
<!-- Generator: Adobe Illustrator 23.0.2, SVG Export Plug-In . SVG Version: 6.00 Build 0)  -->
<svg version="1.1" id="Calque_1" xmlns="http://www.w3.org/2000/svg" xmlns:xlink="http://www.w3.org/1999/xlink" x="0px" y="0px"
	 viewBox="0 0 38.6 39.2" style="enable-background:new 0 0 38.6 39.2;" xml:space="preserve">
<style type="text/css">
	.st0{fill:#FFFFFF;}
</style>
<path class="st0" d="M6.4,24.4c0,0.9,0.4,1.8,1.2,2.4c0.1,1.7,0.6,3.3,1.4,4.7c-0.4,1.7,0.6,3.3,2.3,3.7c0.4,0.1,0.7,0.1,1.1,0.1
	c4.1,3,9.8,3,13.9,0c1.7,0.2,3.2-1,3.4-2.7c0-0.4,0-0.7-0.1-1.1c0.8-1.5,1.3-3.1,1.4-4.7c1.3-1.1,1.6-3,0.5-4.3
	c-0.3-0.4-0.6-0.6-1-0.8c-0.5-1.7-1.1-3.3-1.9-4.9c0-0.1,0-0.1,0-0.2c0-1.3-0.8-2.5-2.1-2.9c-0.4-0.5-0.9-1-1.4-1.5
	c-0.2-0.8-0.7-1.4-1.4-1.9c0.1-1.6,0.5-3.1,1.3-4.4c0.3-0.5,0.2-1.2-0.3-1.6s-1.2-0.2-1.6,0.3c0,0,0,0.1-0.1,0.1
	c-0.9,1.6-1.5,3.3-1.6,5.1h-0.1c-0.3-0.1-0.5-0.2-0.8-0.2l-0.2-6.9c0-0.6-0.5-1.1-1.2-1.1c-0.6,0-1.1,0.5-1.1,1.2l0.2,6.8l-0.3,0
	c-0.4-2.1-1.1-4.2-2-6.2c-0.2-0.6-0.9-0.8-1.5-0.6s-0.8,0.9-0.6,1.5c0.8,1.8,1.4,3.6,1.8,5.5c-1.1,0.2-2.1,1.1-2.3,2.3
	c-0.5,0.5-1,1-1.4,1.5C10.9,14,10,15.2,10,16.5c0,0.1,0,0.1,0,0.2c-0.8,1.6-1.5,3.2-1.9,4.9C7,22.1,6.4,23.2,6.4,24.4z M20.1,13.8
	c0.3-0.2,0.8-0.3,1.2-0.2c0.3,0.1,0.6,0.4,0.8,1.1c0.1,0.3-0.1,0.6-0.4,0.7c-0.3,0.1-0.6-0.1-0.7-0.4l0,0c-0.1-0.2-0.1-0.3-0.1-0.3
	c-0.1,0-0.1,0-0.1,0.1c-0.3,0.2-0.6,0.1-0.8-0.2C19.8,14.3,19.9,14,20.1,13.8z M23.5,16.5c0.3,0,0.6,0.2,0.6,0.5
	c0,0.3-0.2,0.6-0.5,0.6c-0.1,0-0.7,0.1-1.3,0.1c-1.2,0-2.8-0.1-3.8-0.7c-0.6-0.4-1.3-0.4-1.9,0c-0.2,0.2-0.6,0.1-0.8-0.1
	c-0.2-0.2-0.1-0.6,0.1-0.8l0,0c0.9-0.6,2.2-0.7,3.2,0C20.1,16.6,22.6,16.6,23.5,16.5z M28.3,25.4c0.3,0.4,0.4,0.9,0.3,1.4
	c-0.1,0.3-0.3,0.5-0.6,0.5c0,0-0.1,0-0.1,0c-0.3-0.1-0.5-0.3-0.5-0.7c0,0,0,0,0,0c0-0.2,0-0.4-0.1-0.5c-0.3-0.3-0.7-0.5-1.1-0.5
	c-0.3,0-0.5-0.3-0.5-0.6c0-0.3,0.3-0.5,0.6-0.5C27.3,24.5,27.9,24.8,28.3,25.4L28.3,25.4z M20.4,31.7c0-0.6,0.5-1.1,1.1-1.1
	c0.6,0,1.1,0.5,1.1,1.1s-0.5,1.1-1.1,1.1C20.9,32.8,20.4,32.3,20.4,31.7z M25.8,30.6c-0.2,0-0.4-0.1-0.5-0.2c-0.3-0.4-0.6-0.7-1-0.9
	c-0.8-0.5-1.7-0.5-2.5,0c-2.3,1.3-4.2,0.1-4.9-0.7c-0.2-0.3-0.1-0.6,0.2-0.8c0.2-0.1,0.5-0.1,0.7,0c0.1,0.1,1.4,1.6,3.5,0.4
	c2.4-1.3,4.3,0.3,5,1.3c0.2,0.3,0.1,0.6-0.2,0.8C26,30.5,25.9,30.6,25.8,30.6z M15.9,27.1c-0.3,0.2-0.6,0.1-0.8-0.2
	c-0.2-0.3-0.1-0.6,0.2-0.8c3.4-1.9,5.4,0,5.4,0.1c0.2,0.2,0.2,0.6,0,0.8c-0.2,0.2-0.5,0.2-0.8,0C20,27,18.6,25.7,15.9,27.1z
	 M26.1,22.7c-0.6,0-1.1-0.5-1.1-1.1s0.5-1.1,1.1-1.1s1.1,0.5,1.1,1.1S26.7,22.7,26.1,22.7z M25.4,19.3c-0.1,0.2-0.8,1.6-1.9,1.9
	c-0.4,0.1-0.9,0-1.2-0.3c-0.7-0.5-2.1-0.1-2.5,0.1c-0.3,0.1-0.6,0-0.7-0.3c-0.1-0.3,0-0.6,0.3-0.7l0,0c0.1,0,2.3-1,3.7,0.1
	c0.1,0.1,0.2,0.1,0.3,0.1c0.4-0.1,0.9-0.8,1.2-1.3c0.1-0.3,0.5-0.4,0.8-0.3C25.5,18.7,25.6,19,25.4,19.3L25.4,19.3z M15.1,23
	c1.7,1,3.1,1,3.8,0.2c0.4-0.5,1-0.8,1.9-0.9c1.2-0.1,2.6,0.3,3.2,0.8c0.2,0.2,0.2,0.6,0,0.8c-0.2,0.2-0.6,0.2-0.8,0
	c-0.2-0.2-1.2-0.6-2.3-0.5c-0.5,0-0.9,0.2-1.1,0.4c-0.5,0.7-1.4,1.1-2.3,1.1c-1.1,0-2.1-0.4-3-0.9c-1.6-0.9-2.7-0.1-2.7,0
	c-0.2,0.2-0.6,0.2-0.8-0.1c-0.2-0.2-0.2-0.6,0.1-0.8c0,0,0,0,0,0C11.1,23,12.8,21.7,15.1,23z M13.1,18.8c0-0.6,0.5-1.1,1.1-1.1
	s1.1,0.5,1.1,1.1c0,0.6-0.5,1.1-1.1,1.1S13.1,19.4,13.1,18.8z M11.7,27.9c-0.1,0.3-0.4,0.5-0.7,0.4c-0.3-0.1-0.5-0.4-0.4-0.7
	c0.1-0.7,0.6-1.2,1.2-1.5c1-0.5,2,0,2.1,0c0.3,0.1,0.4,0.5,0.3,0.7s-0.5,0.4-0.7,0.3c-0.4-0.2-0.8-0.2-1.2,0
	C12,27.3,11.7,27.6,11.7,27.9z"/>
</svg>
