<?xml version="1.0" encoding="utf-8"?>
<!-- Generator: Adobe Illustrator 23.0.2, SVG Export Plug-In . SVG Version: 6.00 Build 0)  -->
<svg version="1.1" id="Calque_1" xmlns="http://www.w3.org/2000/svg" xmlns:xlink="http://www.w3.org/1999/xlink" x="0px" y="0px"
	 viewBox="0 0 38.6 39.2" style="enable-background:new 0 0 38.6 39.2;" xml:space="preserve">
<style type="text/css">
	.st0{fill:#FFFFFF;}
</style>
<g>
	<path class="st0" d="M10,22.2c6.7,1.1,9.6,9.4,4.7,14.3c-3.3,3.3-8.7,3.3-11.9,0c-5.1-5.1-1.8-14,5.5-14.4l5.5-13.3
		C16.4-1.4,24.8-1.3,32.7,3c-2.1,5.5-9.6,8.8-15.4,8l9.8,11.5c8.4-2.9,15,7.6,8.7,13.9c-3.2,3.3-8.6,3.3-11.9,0
		c-3.9-3.9-3-10.4,1.6-13.2L14.8,10.6L10,22.2z"/>
</g>
</svg>
