<?xml version="1.0" encoding="utf-8"?>
<!-- Generator: Adobe Illustrator 23.0.2, SVG Export Plug-In . SVG Version: 6.00 Build 0)  -->
<svg version="1.1" id="Calque_1" xmlns="http://www.w3.org/2000/svg" xmlns:xlink="http://www.w3.org/1999/xlink" x="0px" y="0px"
	 viewBox="0 0 38.6 39.2" style="enable-background:new 0 0 38.6 39.2;" xml:space="preserve">
<style type="text/css">
	.st0{fill:#FFFFFF;}
</style>
<g>
	<path class="st0" d="M12.1,16.5c-0.6-0.2-1.8-0.2-1.9,0.1c-0.1,0.2,0.7,1.3,1.3,1.6c0.6,0.2,1.3,0,1.5-0.4
		C13.2,17.2,12.7,16.7,12.1,16.5z"/>
	<path class="st0" d="M11.8,14c-0.7,0.1-1.7,0.9-1.6,1.2c0,0.3,1.1,0.7,1.8,0.6c0.7-0.1,1.2-0.5,1.2-1C13,14.4,12.4,14,11.8,14z"/>
	<path class="st0" d="M8.5,11.5C8,11.6,7.8,12.3,8,12.9c0.2,0.6,1,1.5,1.2,1.5c0.2-0.1,0.7-1.3,0.5-2C9.5,11.8,9,11.3,8.5,11.5z"/>
	<path class="st0" d="M8.2,15.3c0.2-0.2-0.2-1.3-0.6-1.8c-0.5-0.5-1.1-0.7-1.5-0.3c-0.4,0.3-0.3,1.1,0.1,1.6
		C6.7,15.1,8,15.4,8.2,15.3z"/>
	<path class="st0" d="M8,16.3c-0.2-0.2-1.5,0.1-1.9,0.5c-0.5,0.5-0.6,1.2-0.2,1.6c0.4,0.3,1,0.2,1.5-0.3C7.8,17.6,8.2,16.5,8,16.3z"
		/>
	<path class="st0" d="M9.3,16.8C9,16.7,8.2,17.5,8,18.2c-0.2,0.6-0.1,1.3,0.4,1.4c0.5,0.2,1.1-0.3,1.3-0.9
		C9.9,18.1,9.5,16.8,9.3,16.8z"/>
	<path class="st0" d="M16.9,22.4c-0.5-0.2-1,0.2-1.2,0.7c-0.2,0.6-0.2,1.6,0.1,1.7c0.2,0.1,1.3-0.5,1.6-1.1
		C17.6,23.2,17.4,22.6,16.9,22.4z"/>
	<path class="st0" d="M14.1,22.2c-0.5,0-0.9,0.6-0.8,1.2c0.1,0.6,0.9,1.5,1.2,1.5c0.3,0,0.7-1,0.6-1.6C15,22.7,14.6,22.2,14.1,22.2z
		"/>
	<path class="st0" d="M11.7,24.8c-0.7,0.1-1.2,0.5-1.1,1c0.1,0.4,0.7,0.7,1.3,0.6c0.7-0.1,1.7-0.6,1.6-0.9
		C13.5,25.3,12.4,24.7,11.7,24.8z"/>
	<path class="st0" d="M24.3,30.1c-0.5-0.3-1.6-0.4-1.8-0.2c-0.1,0.2,0.3,1.1,0.8,1.4c0.5,0.3,1.2,0.2,1.5-0.1
		C25,30.8,24.8,30.4,24.3,30.1z"/>
	<path class="st0" d="M22.7,28.8c0,0.2,0.9,0.7,1.5,0.8c0.6,0.1,1.2-0.1,1.3-0.5c0.1-0.4-0.4-0.8-1-0.8
		C23.9,28.2,22.8,28.6,22.7,28.8z"/>
	<path class="st0" d="M22.1,28c0.2,0,0.9-0.9,0.9-1.4c0-0.5-0.5-0.9-0.9-0.9c-0.5,0-0.8,0.5-0.8,1C21.3,27.3,21.8,28.1,22.1,28z"/>
	<path class="st0" d="M20.9,28.5c0.2-0.1,0.2-1-0.1-1.4c-0.3-0.4-0.9-0.7-1.3-0.5c-0.4,0.2-0.5,0.7-0.2,1.2
		C19.6,28.2,20.7,28.6,20.9,28.5z"/>
	<path class="st0" d="M19.4,30.4c0.6-0.3,1.2-1,1.1-1.2c-0.1-0.2-1.4-0.2-1.9,0.1c-0.6,0.3-0.8,0.8-0.6,1.1
		C18.2,30.7,18.8,30.7,19.4,30.4z"/>
	<path class="st0" d="M20,30.6c-0.4,0.4-0.4,0.9,0,1.1c0.4,0.2,1.1,0,1.4-0.4c0.4-0.4,0.3-1.4,0.1-1.5C21.3,29.7,20.3,30.2,20,30.6z
		"/>
	<path class="st0" d="M35.2,1.3c-1.8-0.8-3.8-0.8-5.7-0.7c-0.4,0-0.8,0.1-1.2,0.1c-0.2,0-0.5,0.1-0.7,0.1C20.4,3,11.7,5.5,8.2,6.5
		C7.7,6.6,7.2,6.8,6.6,7c-4.6,1.8-6.8,6.9-5,11.4c1,2.6,3.1,4.4,5.5,5.2c-0.2,0.7-0.3,1.4-0.3,2.2c0,3.7,2.8,6.8,6.6,7.5v1.3
		c0,0,1.9,4.1,8.3,4.1s8.1-3.6,8.1-4.1s0.2-5.4,0.2-5.4c0-2.7-3-4.9-6.9-5.3c-0.4-1.6-1.4-3-2.7-4c3.1-1.5,6.6-3.2,9.5-4.9
		c2.8-1.6,5.1-3.5,6.6-6.2C38,6.3,38.3,2.6,35.2,1.3z M21.7,25.3c3.3,0,6,1.7,6,3.9s-2.7,3.9-6,3.9c-3.3,0-6-1.7-6-3.9
		C15.7,27.1,18.4,25.3,21.7,25.3z M14.3,26.8c0-0.1,0-0.1,0-0.2c-0.2-0.2-1.3-0.1-1.9,0.3c-0.6,0.3-0.8,0.9-0.6,1.3
		c0.3,0.4,1,0.4,1.6,0.1c0.1,0,0.1-0.1,0.2-0.1c-0.1,0.4-0.2,0.7-0.2,1.1v1.9c-2.5-0.7-4.3-2.8-4.3-5.3c0-3.1,2.7-5.5,6-5.5
		c2.6,0,4.8,1.5,5.6,3.6C17.9,24.1,15.6,25.2,14.3,26.8z M15.1,18.1c-3,0-5.7,1.5-7.1,3.8c-2.9-0.6-5.1-3.2-5.1-6.3
		c0-3.6,2.9-6.5,6.5-6.5c3.6,0,6.5,2.9,6.5,6.5c0,0.9-0.2,1.8-0.5,2.6C15.2,18.1,15.2,18.1,15.1,18.1z M20.7,5.4
		c-5.4,1.6-9.6,3.2-9.9,2.2c-0.3-0.9,4.1-1.9,9.5-3.5c5.4-1.6,9.6-3,9.9-2.2C30.5,2.8,26,3.8,20.7,5.4z"/>
</g>
</svg>
