<?xml version="1.0" encoding="utf-8"?>
<!-- Generator: Adobe Illustrator 23.0.2, SVG Export Plug-In . SVG Version: 6.00 Build 0)  -->
<svg version="1.1" id="Calque_1" xmlns="http://www.w3.org/2000/svg" xmlns:xlink="http://www.w3.org/1999/xlink" x="0px" y="0px"
	 viewBox="0 0 38.6 39.2" style="enable-background:new 0 0 38.6 39.2;" xml:space="preserve">
<style type="text/css">
	.st0{fill:#FFFFFF;}
</style>
<g>
	<path class="st0" d="M17.5,16.4c-1.8,0.3-3,1.9-2.8,3.7s1.9,3,3.7,2.8c1.8-0.3,3-1.9,2.8-3.7c0-0.3-0.1-0.6-0.3-0.9
		C19.6,18.2,18.3,17.5,17.5,16.4z"/>
	<path class="st0" d="M28.4,30.1c0-0.2,0-0.5-0.1-0.7c-1.4,0.2-2.9-0.3-3.8-1.3c-0.7,0.7-1.6,1.2-2.5,1.3c-0.4,1.8,0.7,3.5,2.5,3.9
		c1.8,0.4,3.5-0.7,3.9-2.5C28.4,30.6,28.4,30.3,28.4,30.1z"/>
	<path class="st0" d="M11.6,16.4c-1.8,0.2-3,1.9-2.8,3.7c0.2,1.8,1.9,3,3.7,2.8c0.6-0.1,1.2-0.3,1.6-0.7c-0.8-1.2-1-2.8-0.5-4.1
		C12.9,17.6,12.2,17.1,11.6,16.4z"/>
	<path class="st0" d="M19.2,24c0.2,1,0,2-0.4,2.9c1.2,1.4,3.2,1.5,4.6,0.4c0.1-0.1,0.2-0.2,0.4-0.4c-0.5-0.9-0.6-1.9-0.4-3
		c-0.8-0.2-1.5-0.6-2-1.2C20.7,23.4,20,23.8,19.2,24z"/>
	<circle class="st0" cx="27.8" cy="24.8" r="3.3"/>
	<path class="st0" d="M15.4,10.4c-1.8,0-3.3,1.5-3.3,3.3c0,1.4,0.9,2.7,2.2,3.1c0.6-0.8,1.5-1.4,2.6-1.7c-0.4-1.3-0.2-2.8,0.5-4
		C16.8,10.7,16.1,10.4,15.4,10.4z"/>
	<path class="st0" d="M25.8,13.7c0,0.9-0.3,1.8-0.8,2.5c1.4,1.1,3.5,0.9,4.6-0.4s0.9-3.5-0.4-4.6c-1.2-1-3-1-4.2,0
		C25.6,11.9,25.8,12.8,25.8,13.7z"/>
	<path class="st0" d="M29.1,19.6c0,0.3,0,0.6-0.1,0.8c1.2,0.3,2.1,1.1,2.7,2.1c1.2-0.5,1.9-1.7,1.9-3c0-1.6-1.2-3-2.8-3.2
		c-0.5,0.7-1.2,1.3-2.1,1.6C29,18.5,29.1,19,29.1,19.6z"/>
	<path class="st0" d="M21.9,9.2V6.5c0-1.9,1.4-3.5,3.3-3.9V1.3c-2.6,0.3-4.6,2.6-4.6,5.2v2.7C21,9.1,21.5,9.1,21.9,9.2z"/>
	<circle class="st0" cx="21.2" cy="13.7" r="3.3"/>
	<path class="st0" d="M11,12.2c0.5-1.4,1.6-2.5,3-2.9c-1.5-0.6-3-0.8-4.6-0.8c-0.4,0-0.7-0.3-0.7-0.7c0-0.4,0.3-0.7,0.7-0.7
		c2.8,0,5.6,0.8,7.9,2.4c0.3,0.2,0.7,0.4,1,0.6c0.1-0.1,0.2-0.2,0.3-0.3c-1.2-2.9-4.1-4.7-7.2-4.7H4.9C5.2,8.6,7.7,11.5,11,12.2z"/>
	<path class="st0" d="M23.7,22.8c0.8-1.5,2.3-2.5,4-2.5c0.1-0.7,0.1-1.4-0.2-2c-0.1,0-0.2,0-0.4,0c-1.1,0-2.1-0.4-2.9-1.1
		c-0.5,0.5-1.2,0.8-1.9,0.9c0.2,0.5,0.2,0.9,0.2,1.4c0,0.7-0.2,1.5-0.5,2.1C22.5,22.2,23.1,22.6,23.7,22.8z"/>
	<path class="st0" d="M21.2,37.9c1.8,0,3.3-1.5,3.3-3.3c0,0,0,0,0-0.1c-1.4-0.2-2.6-1-3.3-2.2c-0.7,1.2-1.9,2-3.3,2.2c0,0,0,0,0,0.1
		C18,36.4,19.4,37.9,21.2,37.9z"/>
	<path class="st0" d="M18,24.8c0-0.2,0-0.4-0.1-0.7c-1.1,0-2.1-0.4-2.9-1.1c-1,0.8-2.2,1.2-3.5,1c-0.4,1.8,0.7,3.5,2.5,3.9
		c1.8,0.4,3.5-0.7,3.9-2.5C17.9,25.3,18,25.1,18,24.8z"/>
	<path class="st0" d="M17.3,33.3c1.8,0,3.2-1.4,3.3-3.2c0-0.3,0-0.5-0.1-0.8c-1-0.2-1.8-0.6-2.5-1.3c-1,1-2.4,1.5-3.8,1.3
		c-0.4,1.7,0.7,3.5,2.4,3.9C16.8,33.3,17.1,33.3,17.3,33.3z"/>
</g>
</svg>
