<?xml version="1.0" encoding="utf-8"?>
<!-- Generator: Adobe Illustrator 23.0.2, SVG Export Plug-In . SVG Version: 6.00 Build 0)  -->
<svg version="1.1" id="Calque_1" xmlns="http://www.w3.org/2000/svg" xmlns:xlink="http://www.w3.org/1999/xlink" x="0px" y="0px"
	 viewBox="0 0 38.6 39.2" style="enable-background:new 0 0 38.6 39.2;" xml:space="preserve">
<style type="text/css">
	.st0{fill:#FFFFFF;}
</style>
<g>
	<path class="st0" d="M17.9,6.2c5.2-0.8,10.6,1.5,13.5,5.9c1.7-0.4,3.4,0,4.7,1c1.4-4.8-4.7-9-9-8.5c-0.4-2.3-2.5-3.6-4.7-3.8
		c-2.3-0.1-4.6,0.8-6.3,2.4C17,4.2,17.6,5.2,17.9,6.2z"/>
	<path class="st0" d="M38,20.4c0-3.2-2.1-7.6-5.9-7.1c3.3,6.2,1.1,14.2-4.8,17.9c0.2,1.4-0.1,2.9-0.9,4.1c4.9,1.6,10-4.4,9.1-9
		C37,25.1,38,22.9,38,20.4z"/>
	<path class="st0" d="M23.7,32.8c-6.1,1.7-12.8-1.2-15.7-6.8c-1.7,0.3-3.5-0.2-4.8-1.3c-0.9,2-0.1,4.3,1.2,5.9
		c1.7,2.1,4.6,3.5,7.4,3.3c0.6,3.5,4.8,4.7,7.9,4.2c3.1-0.5,6.6-2.8,6.4-6.2C25.3,32.3,24.5,32.6,23.7,32.8z"/>
	<path class="st0" d="M3.4,23.3c1.1,1,2.5,1.7,4.1,1.5C4.4,17.3,8.8,8.5,16.6,6.5c-1-2.8-3.8-4.2-6.6-2.9c-2.6,1.2-4.2,4.1-4.5,6.9
		c-2.8,0-4.6,2.5-4.9,5C0.3,18.3,1.3,21.4,3.4,23.3z"/>
	<path class="st0" d="M19,17.6c-0.6,1.3-1.4,2.6-2.4,3.8c2.3,0.1,4.3,0.6,6.1,1.4c-0.2-1.7-0.2-3.2,0.1-4.7
		C21.4,18.1,20.2,18,19,17.6z"/>
	<path class="st0" d="M20,32.1c1.8,0,3.7-0.4,5.4-1.2c-1.2-2-2.1-4.1-2.5-6.4c-2-1-4.6-1.7-7.5-1.7c-1.6,1.6-3.5,2.9-5.6,3.8
		C12,29.9,15.8,32.1,20,32.1z"/>
	<path class="st0" d="M26.9,30c4.5-3,6.6-8.6,5-13.8c-2.4,1.4-5.2,2-7.9,2.1c-0.8,4,0.4,8.5,2.6,12C26.7,30.1,26.8,30.1,26.9,30z"/>
	<path class="st0" d="M26.6,16.7c1.7-0.3,3.4-0.8,4.9-1.7c-2.5-6.1-9.7-9.2-15.9-6.8c3.9,0.9,5,4.8,3.9,8.3
		C21.8,17,24.2,17.1,26.6,16.7z"/>
	<path class="st0" d="M18.5,12.7c-0.5-2.5-2.8-3.6-5.2-3.5C8,12.7,6.1,19.8,9.1,25.5c2.7-1.1,5.1-3,6.9-5.3
		C17.5,18.1,19,15.4,18.5,12.7z"/>
</g>
</svg>
