<?xml version="1.0" encoding="utf-8"?>
<!-- Generator: Adobe Illustrator 23.0.2, SVG Export Plug-In . SVG Version: 6.00 Build 0)  -->
<svg version="1.1" id="Calque_1" xmlns="http://www.w3.org/2000/svg" xmlns:xlink="http://www.w3.org/1999/xlink" x="0px" y="0px"
	 viewBox="0 0 38.6 39.2" style="enable-background:new 0 0 38.6 39.2;" xml:space="preserve">
<style type="text/css">
	.st0{fill:#FFFFFF;}
</style>
<g>
	<path class="st0" d="M10.8,28.2c-2.3,0-4.1-0.7-5.1-2.2C3,22.4,6.2,15.6,13,10.5c4-2.9,8.4-4.7,11.9-4.7c2.3,0,4.1,0.7,5.1,2.2
		c2.7,3.7-0.5,10.5-7.3,15.6C18.8,26.5,14.4,28.2,10.8,28.2L10.8,28.2z M25,7.6c-3.1,0-7.2,1.6-10.8,4.3c-5.8,4.3-9,10.3-6.9,13
		c0.9,1.2,2.5,1.4,3.6,1.4c3.1,0,7.2-1.6,10.8-4.3c5.8-4.3,9-10.3,6.9-13C27.7,7.9,26.2,7.6,25,7.6L25,7.6z"/>
	<path class="st0" d="M12.4,24.5c-1.6,0-2.4-0.6-2.8-1.2c-0.9-1.1-0.7-2.9,0.5-4.9c1.1-1.7,2.8-3.6,4.9-5.2c3-2.2,6.1-3.5,8.4-3.5
		c1.6,0,2.4,0.6,2.8,1.2c0.9,1.1,0.7,2.9-0.5,4.9c-1.1,1.7-2.8,3.6-4.9,5.1C17.8,23.2,14.7,24.5,12.4,24.5L12.4,24.5z M23.4,11.6
		c-1.8,0-4.7,1.2-7.3,3.1c-1.9,1.4-3.5,3.1-4.4,4.6c-0.7,1.2-1,2.3-0.6,2.8c0.3,0.4,0.9,0.4,1.3,0.4c1.8,0,4.7-1.2,7.3-3.1
		c1.9-1.4,3.5-3.1,4.4-4.6c0.7-1.2,1-2.3,0.6-2.8C24.4,11.7,23.7,11.6,23.4,11.6L23.4,11.6z"/>
	<path class="st0" d="M15.7,19.7c-0.4,0-0.6-0.2-0.7-0.3c-0.1-0.2-0.2-0.4-0.2-0.6c0.1-0.8,1.5-1.9,2.4-2.5c0.6-0.5,2.1-1.5,3-1.5
		c0.4,0,0.6,0.2,0.7,0.3c0.1,0.2,0.2,0.4,0.2,0.6c-0.1,0.8-1.5,1.9-2.4,2.5C18,18.6,16.5,19.7,15.7,19.7L15.7,19.7z"/>
	<path class="st0" d="M34.7,27.5c4.1-6.6,4.7-14.8-0.2-21.6c-0.2-0.3-0.4-0.6-0.6-0.8c-1.6-2.2-4.4-3.4-7.9-3.4
		c-4.7,0-10.2,2.1-15.1,5.7C2,14.1-1.8,23.5,2.1,28.8C2.2,28.9,2.3,29,2.3,29c6.1,7.7,16.4,9.9,24.8,5.5c0,0,1.8-0.9,3.4-0.6
		c1.5,0.2,4.2,3.6,4.2,3.6l2.3-1.9c0,0-2.3-2.8-2.7-4C33.9,30.2,34.3,28.3,34.7,27.5z M12.1,8.9c4.6-3.4,9.7-5.4,14-5.4
		c2,0,4.8,0.5,6.4,2.6C35.8,10.6,32,19,24,25c-4.6,3.4-9.7,5.4-14,5.4c-2,0-4.8-0.5-6.4-2.6C0.3,23.3,4.1,14.9,12.1,8.9z"/>
</g>
</svg>
