<?xml version="1.0" encoding="utf-8"?>
<!-- Generator: Adobe Illustrator 23.0.2, SVG Export Plug-In . SVG Version: 6.00 Build 0)  -->
<svg version="1.1" id="Calque_1" xmlns="http://www.w3.org/2000/svg" xmlns:xlink="http://www.w3.org/1999/xlink" x="0px" y="0px"
	 viewBox="0 0 38.6 39.2" style="enable-background:new 0 0 38.6 39.2;" xml:space="preserve">
<style type="text/css">
	.st0{fill:#FFFFFF;}
</style>
<g transform="translate(0,-1020.3622)">
	<path class="st0" d="M19.3,1030.4c-2.8,0-5.1,2.3-5.1,5.1v1.2c0,2.6-1.9,5.7-3.4,7.8c-1.1,1.6-1.7,3.6-1.7,5.6
		c0,5.6,4.8,8.9,10.1,8.9s10.1-3.3,10.1-8.9c0-2-0.6-4-1.7-5.6c-1.4-2.1-3.4-5.2-3.4-7.8v-1.2C24.4,1032.7,22.1,1030.4,19.3,1030.4z
		"/>
	<path class="st0" d="M16.8,1021.5c-0.4,0-0.6,0.3-0.6,0.6c0,0.1,0,0.3,0.1,0.4l0.4,0.6c1.3,1.9,2,4.1,2,6.4c0.2,0,0.4-0.1,0.6-0.1
		c0.2,0,0.4,0,0.6,0.1c-0.1-2.5-0.8-5-2.2-7.1l-0.4-0.6C17.2,1021.7,17,1021.5,16.8,1021.5L16.8,1021.5z"/>
	<path class="st0" d="M19.9,1025.2l1.5-1.4c1.2-1.1,2.9-1.6,4.6-1.3l2.8,0.5l-2.2,1.5c-1.2,0.8-2.7,1.2-4.2,1L19.9,1025.2z"/>
</g>
</svg>
