<?xml version="1.0" encoding="utf-8"?>
<!-- Generator: Adobe Illustrator 23.0.2, SVG Export Plug-In . SVG Version: 6.00 Build 0)  -->
<svg version="1.1" id="Calque_1" xmlns="http://www.w3.org/2000/svg" xmlns:xlink="http://www.w3.org/1999/xlink" x="0px" y="0px"
	 viewBox="0 0 38.6 39.2" style="enable-background:new 0 0 38.6 39.2;" xml:space="preserve">
<style type="text/css">
	.st0{fill:#FFFFFF;}
</style>
<g>
	<path class="st0" d="M25,7.8c-1,0.9-2.2,1.4-3.9,1.3c0.1-1.7,0.7-2.9,1.8-3.8c1.1-0.9,2.6-1.5,4.6-1.9C26.8,5.4,26,6.8,25,7.8
		 M31.3,23.4c0-4.8-1.9-10.6-6.4-12.9c3.5-1.8,4.6-6.2,5.6-9.7c-3.9,0.6-9,1.3-10.8,5.3c-0.4-1.2-1.1-2.3-2-3.3l-1.8,1.7
		c1.3,1.3,2,2.8,2.3,4.5c2.8,2.4,4.6,5.6,5.2,9.2c0.6,3.7,0.1,8-2.4,11l-1.1-0.9c1.8-2.8,2.1-6.3,1.7-9.4c-0.6-3.9-2.5-7-5.6-9.2
		C9.9,11,7.3,17.8,7.3,23.4c0,6.9,4.7,14.3,12,15C26.6,37.7,31.3,30.3,31.3,23.4z"/>
</g>
</svg>
