<?xml version="1.0" encoding="utf-8"?>
<!-- Generator: Adobe Illustrator 23.0.2, SVG Export Plug-In . SVG Version: 6.00 Build 0)  -->
<svg version="1.1" id="Calque_1" xmlns="http://www.w3.org/2000/svg" xmlns:xlink="http://www.w3.org/1999/xlink" x="0px" y="0px"
	 viewBox="0 0 38.6 39.2" style="enable-background:new 0 0 38.6 39.2;" xml:space="preserve">
<style type="text/css">
	.st0{fill:#FFFFFF;}
</style>
<g>
	<path class="st0" d="M32.3,13.9c-0.3,0.1-0.6,0.2-0.9,0.2c0,0,0,0,0,0c-0.3,0-0.6-0.1-0.9-0.2c-0.2-0.1-0.5-0.2-0.7-0.4
		c-0.2-0.1-0.5-0.2-0.7-0.3c0,0.5,0.1,1,0,1.4c0,0.8-0.5,1.5-1.2,1.9c-0.3,0.1-0.6,0.2-1,0.2c-0.5,0-0.9-0.1-1.3-0.4
		c-1.5-1.1-2.4-1.7-3.2-2.1c-0.6,1.5-1.3,2.4-1.4,2.5c-0.4,0.5-1,0.7-1.6,0.7c-0.6,0-1.2-0.3-1.6-0.7c-0.1-0.1-0.9-1-1.4-2.5
		c-0.8,0.4-1.7,1-3.2,2.1c-0.4,0.3-0.8,0.4-1.3,0.4c-0.3,0-0.7-0.1-1-0.2c-0.7-0.4-1.2-1.1-1.2-1.9c0-0.4,0-0.9,0-1.4
		c-0.2,0.1-0.5,0.2-0.7,0.3c-0.3,0.1-0.5,0.2-0.7,0.3c-0.3,0.1-0.6,0.2-0.9,0.2c-0.3,0-0.6-0.1-0.9-0.2c-1.1,3.6-0.1,8.1,2.9,12.2
		c1.4,1.9,2.2,3.9,2.9,5.7c1.3,3.3,2.4,6.2,7.2,6.2s5.9-2.9,7.2-6.2c0.7-1.8,1.5-3.7,2.9-5.7C32.4,22,33.4,17.5,32.3,13.9z M12,20.9
		c0,0.4-0.4,0.8-0.8,0.8c-0.4,0-0.8-0.4-0.8-0.8v-1.4c0-0.4,0.4-0.8,0.8-0.8c0.4,0,0.8,0.4,0.8,0.8V20.9z M14.7,25.5
		c0,0.4-0.4,0.8-0.8,0.8c-0.4,0-0.8-0.4-0.8-0.8v-1.4c0-0.4,0.4-0.8,0.8-0.8c0.4,0,0.8,0.4,0.8,0.8V25.5z M17.4,30.2
		c0,0.4-0.4,0.8-0.8,0.8c-0.4,0-0.8-0.4-0.8-0.8v-1.4c0-0.4,0.4-0.8,0.8-0.8c0.4,0,0.8,0.4,0.8,0.8V30.2z M17.4,20.9
		c0,0.4-0.4,0.8-0.8,0.8c-0.4,0-0.8-0.4-0.8-0.8v-1.4c0-0.4,0.4-0.8,0.8-0.8c0.4,0,0.8,0.4,0.8,0.8V20.9z M20.1,34.8
		c0,0.4-0.4,0.8-0.8,0.8c-0.4,0-0.8-0.4-0.8-0.8v-1.4c0-0.4,0.4-0.8,0.8-0.8c0.4,0,0.8,0.4,0.8,0.8V34.8z M20.1,25.5
		c0,0.4-0.4,0.8-0.8,0.8c-0.4,0-0.8-0.4-0.8-0.8v-1.4c0-0.4,0.4-0.8,0.8-0.8c0.4,0,0.8,0.4,0.8,0.8V25.5z M22.8,30.2
		c0,0.4-0.4,0.8-0.8,0.8c-0.4,0-0.8-0.4-0.8-0.8v-1.4c0-0.4,0.4-0.8,0.8-0.8c0.4,0,0.8,0.4,0.8,0.8C22.8,28.8,22.8,30.2,22.8,30.2z
		 M22.8,20.9c0,0.4-0.4,0.8-0.8,0.8c-0.4,0-0.8-0.4-0.8-0.8v-1.4c0-0.4,0.4-0.8,0.8-0.8c0.4,0,0.8,0.4,0.8,0.8
		C22.8,19.5,22.8,20.9,22.8,20.9z M25.5,25.5c0,0.4-0.4,0.8-0.8,0.8c-0.4,0-0.8-0.4-0.8-0.8v-1.4c0-0.4,0.4-0.8,0.8-0.8
		c0.4,0,0.8,0.4,0.8,0.8V25.5z M28.2,20.9c0,0.4-0.4,0.8-0.8,0.8c-0.4,0-0.8-0.4-0.8-0.8v-1.4c0-0.4,0.4-0.8,0.8-0.8
		c0.4,0,0.8,0.4,0.8,0.8V20.9z"/>
	<path class="st0" d="M6.9,12.4c0.2,0.1,0.4,0.2,0.6,0.1c0.2-0.1,0.5-0.2,0.7-0.3c1.2-0.6,2.5-1.2,4.2-1.6c-1.2,1.3-1.2,2.7-1.2,4
		c0,0.2,0.1,0.4,0.3,0.5c0.2,0.1,0.4,0.1,0.6,0c2.7-2,3.9-2.5,5.2-3c0.4,2.3,1.5,3.6,1.6,3.7c0.1,0.1,0.3,0.2,0.4,0.2
		c0.2,0,0.3-0.1,0.4-0.2c0.1-0.1,1.2-1.4,1.6-3.7c1.3,0.5,2.4,1.1,5.2,3c0.2,0.1,0.4,0.1,0.6,0c0.2-0.1,0.3-0.3,0.3-0.5
		c0-1.3-0.1-2.7-1.2-4c1.7,0.4,3,1,4.2,1.6c0.2,0.1,0.5,0.2,0.7,0.3c0.2,0.1,0.4,0.1,0.6-0.1c0.2-0.1,0.3-0.4,0.2-0.6
		c-0.3-1.7-3.7-6.4-12.1-6.5c0.1-1.2,0.6-2.3,1-2.9c0.2-0.4,0.1-0.9-0.2-1.1c-0.4-0.2-0.9-0.1-1.1,0.2c-0.4,0.6-1.1,2.1-1.2,3.8
		c-8,0.3-11.4,4.9-11.7,6.5C6.6,12.1,6.7,12.3,6.9,12.4z"/>
</g>
</svg>
