<?xml version="1.0" encoding="utf-8"?>
<!-- Generator: Adobe Illustrator 23.0.2, SVG Export Plug-In . SVG Version: 6.00 Build 0)  -->
<svg version="1.1" id="Calque_1" xmlns="http://www.w3.org/2000/svg" xmlns:xlink="http://www.w3.org/1999/xlink" x="0px" y="0px"
	 viewBox="0 0 38.6 26.8" style="enable-background:new 0 0 38.6 26.8;" xml:space="preserve">
<style type="text/css">
	.st0{fill:#FFFFFF;}
</style>
<g>
	<g>
		<path class="st0" d="M4.8,13.3C4.8,13.3,4.8,13.3,4.8,13.3C4.8,13.3,4.8,13.3,4.8,13.3L4.8,13.3z M37.7,15.5
			C37.6,15.5,37.6,15.4,37.7,15.5c-0.1-0.2-0.2-0.3-0.3-0.3c-0.1,0-0.3,0-0.4,0c0,0,0,0,0,0c0,0,0,0,0,0c0-0.1-0.1-0.3-0.1-0.4
			c0,0,0,0,0-0.1c0,0,0,0,0-0.1c0.1-0.1,0.1-0.1,0.2-0.2c0,0,0,0,0,0c0-0.1,0-0.1-0.1-0.2c0-0.1,0-0.1,0.1-0.2c0,0,0.1-0.1,0.1-0.1
			c0,0,0,0,0,0c0,0,0,0,0-0.1c0-0.1-0.1-0.2-0.1-0.3l0-0.1c0-0.1,0.1-0.1,0.1-0.2c0.1-0.1,0.2-0.3,0.2-0.4c0-0.2-0.1-0.4-0.1-0.5
			c0-0.2,0.1-0.4,0.2-0.5c0,0,0-0.1,0-0.1c0,0,0,0,0,0c-0.1-0.1-0.2-0.2-0.4-0.2c0,0-0.1,0-0.1,0c0,0,0,0,0-0.1
			c0-0.1-0.1-0.3-0.2-0.3c-0.1,0-0.2,0-0.3,0.1c0,0-0.1,0-0.1,0.1c0,0,0,0.1,0,0.1c0,0.2-0.1,0.3-0.3,0.4l0,0.1
			c0,0.1-0.1,0.2-0.2,0.2c-0.1,0-0.2,0-0.3-0.1c0,0.1-0.1,0.2-0.1,0.3c0,0.1-0.1,0.1-0.1,0.2c0,0.1,0,0.1,0.1,0.2
			c0,0.1-0.1,0.2-0.2,0.2c-0.1,0-0.1,0-0.2,0c-0.1,0-0.1,0.1-0.2,0.2c0,0-0.1,0-0.1,0c-0.1,0-0.2,0.1-0.4,0.1c0,0-0.1,0-0.1,0
			c0,0,0-0.1-0.1-0.2c-0.1-0.1-0.2,0-0.3,0c-0.1,0-0.1-0.1-0.1-0.2c-0.1-0.2-0.3-0.3-0.4-0.3l0,0c-0.1,0-0.2,0-0.3,0
			c-0.1,0-0.3-0.1-0.4-0.2c-0.1-0.1-0.1-0.2-0.2-0.4c0,0,0-0.1,0-0.1c0-0.1,0.1-0.1,0.1-0.2c0-0.1,0-0.2,0-0.2
			c0-0.1-0.1-0.1-0.1-0.2c0,0,0,0-0.1-0.1c0,0-0.1,0-0.2,0c-0.1,0-0.1,0-0.2,0c-0.1,0-0.2-0.1-0.3-0.2c-0.1,0-0.3,0-0.4-0.1l-0.1,0
			c-0.1-0.1-0.3-0.2-0.5-0.1c-0.1,0-0.2,0.1-0.3,0c0,0-0.1,0-0.1,0c-0.1,0-0.2,0-0.2,0c-0.1,0-0.2,0-0.2,0c0,0-0.1-0.1-0.1-0.1
			c0,0-0.1,0-0.1,0c-0.1,0-0.2,0.1-0.3,0.1c0,0,0,0,0,0c-0.1,0,0-0.1,0-0.2c0.1-0.1,0.1-0.2,0.2-0.3l0-0.1c0-0.1,0-0.2,0-0.3
			c0-0.1-0.1-0.2-0.1-0.3c-0.1-0.1,0-0.3,0-0.5c0-0.2,0-0.3,0.1-0.5c0-0.1,0.1-0.1,0.1-0.2c0,0,0-0.1,0-0.1c0-0.1,0.1-0.2,0.1-0.2
			l0.2-0.4l0.1,0c0.1,0,0.2-0.1,0.2-0.2c0-0.1,0-0.2,0.1-0.3c0.1-0.1,0.2-0.2,0.4-0.3c0.1,0,0.1-0.1,0.1-0.2c0-0.1-0.1-0.2-0.1-0.3
			c0-0.1,0-0.2,0-0.3c0-0.1,0-0.2-0.1-0.3c-0.1-0.1-0.1-0.1-0.2-0.1c-0.1,0-0.2-0.1-0.3-0.2c0,0-0.1-0.1-0.1-0.1
			c-0.1,0-0.1,0.1-0.2,0.1v0c0-0.2,0-0.3,0-0.5c0,0,0,0,0-0.1c0,0,0,0,0,0c-0.2-0.2-0.5-0.3-0.8-0.4l-0.1,0c-0.1,0-0.1,0-0.1-0.1
			c-0.3-0.2-0.5-0.3-0.8-0.4c-0.2-0.1-0.5-0.3-0.7-0.3c-0.1,0,0,0-0.1,0c-0.1,0-0.2,0-0.3,0c-0.3-0.1-1.2-0.3-1.5-0.2
			c-0.2,0-0.3,0.2-0.5,0.2c-0.2,0.1-0.4,0.1-0.5,0c-0.1-0.1-0.2-0.2-0.2-0.3c0,0,0-0.1,0-0.1c0,0,0-0.1,0.1-0.1c0,0,0-0.1,0-0.1
			c-0.2,0-0.3,0-0.4-0.1l0-0.1c0,0,0-0.1-0.1-0.1c0,0-0.1,0-0.1,0c-0.1,0-0.2,0.1-0.2,0.2c0,0.1,0.1,0.2,0.1,0.2
			c0.1,0,0.1,0,0.1,0.1c0,0,0,0,0,0.1c0,0,0,0.1,0,0.1c-0.1,0-0.3-0.1-0.4-0.1c0,0-0.1,0-0.1,0c0,0-0.1-0.1-0.1-0.1
			c0,0-0.1-0.1-0.1,0c0,0,0,0.1,0,0.1c0,0-0.1,0.1-0.1,0c0,0,0,0,0,0c0,0-0.1,0.1-0.1,0.1c-0.1,0-0.1,0-0.2-0.1c0-0.1,0-0.1,0.1-0.2
			c0.1,0,0.1-0.1,0.2-0.1c0.1,0,0.1,0,0.2,0c-0.1-0.1-0.1-0.3,0-0.4c0,0,0.1-0.1,0.1-0.1c0,0,0,0,0,0c0,0-0.1-0.1-0.1-0.1
			c0,0,0,0-0.1,0c-0.1,0-0.1,0.1-0.1,0.1c0-0.1-0.1-0.2-0.1-0.2c0,0,0,0,0-0.1c0,0,0,0-0.1,0c-0.1,0-0.1,0-0.2,0c0,0.1,0,0.2,0,0.4
			c0,0-0.1,0-0.2,0c0,0,0-0.1,0-0.2c0-0.1,0-0.1,0-0.2c0-0.1-0.1-0.1-0.2-0.1c-0.1,0-0.2,0-0.3,0.1c0,0.1,0,0.2-0.1,0.2
			c-0.1,0.1-0.3,0.2-0.4,0.2c0,0-0.1,0-0.1,0c0,0,0,0.1-0.1,0.1c-0.1,0.2-0.2,0.5-0.4,0.6c0,0,0,0-0.1,0.1c0,0,0,0.1,0,0.1
			c0,0.1,0,0.2,0,0.3l0.1,0c0.1,0.1,0.2,0.1,0.3,0.2c0,0,0,0,0.1,0.1c0,0,0,0,0.1,0c0.1,0,0.2,0,0.3,0c0.1,0,0.2-0.1,0.2-0.2
			c0-0.1,0.1-0.1,0.1-0.1c0,0,0,0,0.1,0c0,0,0.1,0,0.2,0c0.1,0,0.1-0.1,0.2-0.1c0,0,0,0,0,0c0,0,0,0,0,0c0,0.1,0.1,0.2,0.2,0.2
			c0,0.1-0.1,0.1-0.2,0c0,0,0,0,0-0.1c0,0-0.1,0-0.1,0c0,0,0,0,0,0.1c0.1,0.1,0.1,0.3,0,0.4c0,0.1-0.1,0.1-0.2,0.1
			C22,4,21.9,4,21.9,3.9c0,0,0-0.1-0.1-0.1c0,0,0,0-0.1,0c-0.1,0-0.1,0-0.2,0c0,0.1-0.2,0.2-0.3,0.2c-0.1,0-0.1,0-0.2,0.1
			c0,0.1,0,0.1,0,0.2c0.1,0,0.2,0,0.2,0c0,0,0,0.1,0,0.1c0,0-0.1,0-0.1,0c-0.1,0-0.2,0-0.3,0l0,0c-0.1,0-0.2,0-0.3,0
			c0,0-0.1,0-0.1,0c0,0-0.1,0-0.1,0c0,0-0.1,0-0.1,0c-0.1,0-0.2,0-0.3-0.1c0,0-0.1,0-0.1,0c0,0,0,0,0-0.1c0-0.1-0.1-0.2-0.3-0.3
			c-0.1,0-0.3,0-0.4,0c0,0,0,0,0,0c0,0,0,0,0,0c0-0.1-0.1-0.1-0.2-0.1c-0.1,0-0.1,0.1-0.2,0.1l-0.1-0.1c0,0.1-0.1,0.1-0.1,0.2
			c0,0,0,0.1-0.1,0.1c-0.1,0-0.1,0-0.2,0c-0.1,0-0.1,0.1-0.1,0.1c-0.1,0.1-0.2,0.2-0.3,0.2c-0.1,0-0.1,0.1-0.2,0.1
			c-0.1,0-0.2,0-0.2,0c-0.2,0-0.3,0-0.5,0c0,0,0,0-0.1,0c-0.1,0-0.1-0.2-0.2-0.3c-0.1-0.1-0.2-0.1-0.3-0.1c-0.1,0-0.2,0-0.4,0.1
			c0,0-0.1,0-0.1,0.1c0,0,0,0.1-0.1,0.2c0,0.1-0.1,0.1-0.2,0.1c-0.1,0-0.1,0-0.2,0l0,0c-0.2,0.1-0.5,0.2-0.8,0.2c0,0-0.1,0-0.1,0
			c0,0,0-0.1,0-0.1c0,0,0.1,0,0.1,0l0.2,0c0,0,0,0,0.1,0c0,0,0,0,0,0c0-0.1,0-0.3-0.1-0.4c-0.1,0-0.2,0-0.3,0.1c0,0-0.1,0-0.1,0
			c0,0-0.1,0.1-0.1,0.1c-0.1,0.1-0.3,0.2-0.4,0.2c-0.1,0-0.2,0-0.3,0c-0.1,0-0.2,0.1-0.3,0.2c0,0-0.1,0-0.1,0c0,0-0.1,0.1-0.1,0.1
			c0,0.1,0.1,0.1,0.1,0.1c0,0,0.1,0,0.1,0c0,0,0.1,0,0.1,0c0,0,0,0.1,0,0.1c0,0-0.1,0-0.1,0c0,0.1,0.1,0.1,0.1,0.2c0,0,0,0,0,0.1
			c-0.1,0.1-0.1,0.1-0.2,0.2l0,0c-0.1,0-0.2-0.1-0.3-0.1s-0.2,0-0.2,0.1c0,0.1,0.2,0.1,0.2,0.2c0,0,0,0.1,0,0.1
			c-0.1,0.2-0.4,0.4-0.7,0.4c-0.1,0-0.2,0-0.4,0c-0.2,0-0.4,0.1-0.5,0.2c0-0.2-0.3-0.4-0.5-0.4c0-0.1,0.1-0.3,0.1-0.4
			c0,0,0-0.1,0-0.1c0,0,0,0-0.1,0c-0.2-0.1-0.3-0.1-0.5-0.1c-0.1,0-0.2,0.1-0.2,0.1c-0.2,0-0.3-0.2-0.5-0.2l0,0c-0.1,0-0.2,0-0.2,0
			c-0.1,0.1,0,0.4-0.1,0.6C9.3,6,9,6.1,9,6.2c0,0,0,0.1,0,0.1c0,0.1-0.1,0.2-0.2,0.2C8.6,6.7,8.5,6.9,8.5,7.1C8.8,7,9.1,7,9.3,7
			c0.1,0,0.2,0,0.3,0C9.7,7,9.8,7,9.9,7.1c0,0.1,0,0.2,0,0.3C9.8,7.5,9.6,7.5,9.6,7.4c-0.1,0.1,0,0.2-0.1,0.3c0,0-0.1,0-0.1,0
			c-0.1,0-0.2,0-0.3,0.1l0,0c0,0.1,0,0.3,0,0.4c0,0,0,0.1,0,0.1c0,0,0,0-0.1,0.1C8.8,8.7,8.6,8.8,8.4,9c-0.1,0-0.1,0.1-0.1,0.2
			c0,0.1,0,0.2,0,0.2C8,9.5,7.7,9.6,7.5,9.8C7.4,9.8,7.3,10,7.4,10.1l0,0c-0.1,0.1-0.2,0.1-0.3,0.2c0,0.2,0.1,0.3,0.1,0.5
			C7,10.9,6.8,10.9,6.7,11c0,0,0,0.1-0.1,0.1c0,0-0.1,0.1-0.1,0.1l-1,0.4c-0.1,0-0.2,0-0.2,0L5,11.9c0,0-0.1,0.1-0.1,0.1
			c0,0.1,0.1,0.3,0.2,0.4c0,0.1,0,0.1,0,0.2c0,0.1,0,0.3,0,0.4c0,0.1-0.1,0.2-0.2,0.3c0,0.2,0,0.3,0.1,0.5c0,0,0,0.1,0,0.1
			c0,0.1-0.2,0.2-0.3,0.3c-0.1,0.1-0.1,0.1-0.1,0.2c-0.1,0.2-0.3,0.3-0.4,0.4c-0.1,0.1-0.3,0.2-0.4,0.2l0,0
			c-0.5,0.4-0.9,0.8-1.3,1.3c0,0,0,0.1,0,0.1c0,0,0,0.1,0,0.1c0.1,0.1,0.2,0.2,0.2,0.4c-0.2,0.2-0.3,0.4-0.5,0.7
			c0,0.1-0.1,0.1-0.1,0.2c0,0.1,0,0.2,0,0.2c0,0.2-0.1,0.2-0.2,0.3l0,0c0.2,0.1,0.4,0.3,0.6,0.4c0,0,0,0,0.1,0.1c0,0,0,0,0,0.1
			c0,0.1,0,0.3,0,0.4c-0.1,0.2-0.3,0.3-0.3,0.5c0,0.1,0,0.2,0,0.3c0,0.1,0,0.2-0.1,0.3c0,0,0,0,0,0c0,0,0,0-0.1,0
			c-0.1-0.1-0.4,0-0.4,0.2l0,0c-0.1,0-0.1,0-0.2,0c0,0,0,0-0.1,0c0,0,0,0-0.1,0.1c-0.1,0.1-0.2,0.2-0.3,0.4c0.1,0.1,0.2,0.2,0.1,0.3
			c0,0-0.1,0.1-0.1,0.1C1,21.3,0.9,21.5,1,21.6c0.2,0.1,0.4-0.1,0.6-0.1c0.1,0,0.2,0,0.3,0c0.2,0,0.4-0.1,0.6-0.2l0.1,0
			c0.1-0.2,0.1-0.3,0.3-0.4c0.1,0,0.1-0.1,0.2-0.1l0.5-0.2c0,0,0.1,0,0.1-0.1c0,0,0,0,0-0.1l0.2-0.3c-0.1-0.1-0.2,0-0.3,0.1
			c-0.1-0.1-0.2-0.2-0.3-0.3c0-0.1,0.1-0.1,0.2-0.2c-0.1-0.1-0.2-0.2-0.3-0.2c0.2-0.4,0.5-0.8,0.9-0.9L4,18.5L6,17.9
			c0.1,0,0.2,0,0.3-0.1c0.3,0,0.5,0,0.8,0.1l0.8,0.2c0,0,0.1,0,0.1,0c0,0,0,0.1,0,0.1c0,0.2,0,0.3,0,0.5l0,0c-0.1,0-0.1,0.1-0.2,0.1
			c-0.1,0.1,0,0.2,0,0.3c0,0.1,0.1,0.2,0.1,0.4c0.1,0.1,0.1,0.1,0.2,0.2c0.1,0.1,0.1,0.1,0.2,0.2c-0.1,0.1-0.1,0.2-0.1,0.3
			c-0.1,0.2-0.2,0.2-0.2,0.4c0,0.1,0.1,0.3,0,0.5c0,0.1-0.1,0.1-0.2,0.2c-0.1,0.1,0,0.2,0,0.3c0,0,0,0.1,0,0.1c0,0,0,0,0.1,0
			c0.3,0.1,0.5,0.1,0.8,0.1c-0.1,0.2-0.1,0.5-0.2,0.7c0,0.1,0,0.1,0,0.2c0,0.1,0.1,0.1,0.1,0.1c0,0,0-0.1,0-0.1
			c0-0.1,0.1-0.1,0.1-0.1c0.1,0,0.1,0,0.1,0c0.1,0,0.1,0,0.1-0.1l0.1-0.1c0.2,0.2,0.2,0.5,0.4,0.6c0,0,0.1,0,0.1,0
			c0,0,0,0.1,0.1,0.1c0,0.2,0,0.4,0.2,0.5c0,0,0.1,0,0.1,0.1c0.1,0.1,0,0.2,0,0.2c0,0.1,0.1,0.2,0.1,0.3c0.1,0.2,0.3,0.4,0.4,0.6
			c0,0,0,0,0,0c0,0,0,0,0,0c0.1-0.1,0.2-0.2,0.3-0.2c0.1,0.1,0.1,0.2,0.2,0.2c0.1,0,0.2,0,0.2-0.1c0-0.1,0-0.2,0.1-0.2
			c0.1-0.1,0.2,0,0.3,0c0.1,0,0.2-0.2,0.3-0.2c0.1-0.1,0.3-0.1,0.4-0.1c0.1,0,0.3,0.1,0.4,0.2c0,0,0.1,0,0.1,0c0,0,0,0,0.1,0
			c0.2-0.1,0.3-0.3,0.5-0.4l0,0c0-0.1,0-0.2,0.1-0.2c0.1,0,0.2-0.1,0.2-0.1c0.1,0,0.2,0,0.2,0c0,0,0.1,0,0.1-0.1
			c0.1-0.1,0-0.2,0-0.3c0.1,0,0.3-0.1,0.4,0.1c0,0,0,0.1,0,0.1c0,0.1,0.1,0,0.2,0c0.1,0,0.3,0,0.4,0c0.2,0.1,0.3,0.3,0.3,0.6
			c0,0,0.1,0,0.2,0c0,0,0.1-0.1,0.1-0.1c0.1-0.1,0.3,0,0.3,0.1c0,0,0,0,0,0c0,0,0.1,0,0.1-0.1c0.2-0.1,0.4,0.1,0.6,0l0-0.1
			c-0.1-0.3,0.1-0.6,0.4-0.7c0.2-0.1,0.4,0,0.6-0.1c0.1-0.1,0.2-0.2,0.2-0.3c0,0,0-0.1,0-0.1c0,0,0.1,0,0.1-0.1c0,0,0-0.1,0-0.1
			c-0.1-0.2,0-0.3,0.1-0.5c0,0,0-0.1,0.1-0.1c0,0,0.1,0,0.1,0c0.1,0,0.2,0,0.3,0c0.1,0,0.2-0.1,0.2-0.2c0,0,0-0.1,0-0.1
			c0,0,0.1,0,0.1-0.1c0.2-0.1,0.3-0.4,0.2-0.7c-0.1-0.2-0.3-0.4-0.5-0.6c0,0-0.1-0.1-0.2-0.1c0.1-0.2,0.2-0.3,0.3-0.4l0-0.1
			c0.2,0,0.5-0.1,0.6-0.2c0.1-0.1,0.1-0.2,0.2-0.2c0.1-0.1,0.2-0.1,0.2-0.1c0,0,0-0.1,0-0.1c0.1-0.2,0.2-0.3,0.4-0.4
			c-0.1-0.1-0.1-0.2-0.2-0.3c0.1-0.2,0.3-0.3,0.5-0.4c0.2-0.1,0.4-0.1,0.6-0.3c0.1,0,0.2,0.1,0.3,0.2c0,0,0,0.1,0,0.1
			c0,0.2,0,0.3,0,0.5c0,0.2,0.1,0.4,0.1,0.6c0,0.2-0.1,0.4-0.3,0.5l0,0.1c0,0.1,0.1,0.1,0.1,0.2c0.1,0.1,0,0.2,0,0.4
			c0.1,0.1,0.3,0.3,0.5,0.3c0.1,0,0.1,0,0.2,0.1c0,0,0.1,0.1,0.1,0.1c0.2,0.2,0.3,0.6,0.5,0.7l0,0.1c0,0.1,0.1,0.1,0.1,0.2
			c0.2,0,0.3,0,0.4,0.1c0.1,0.1,0.1,0.1,0.2,0.2c0.1,0,0.2,0,0.2,0c0.1,0,0.1-0.1,0.1-0.2c0.1,0.1,0.2,0.2,0.4,0.2
			c0.1,0,0.1,0,0.2,0c0.1,0,0.1,0,0.1,0.1c0.1,0.1,0.2,0.1,0.3,0.2c0,0.1,0,0.2-0.1,0.3c-0.1,0.1-0.2,0.2-0.3,0.3c0,0,0,0-0.1,0.1
			c0,0,0,0,0,0.1c0,0.1,0,0.2,0,0.3c0.1,0.1,0.2,0.2,0.3,0.1l0.1,0.1c0.1,0.2,0.3,0.3,0.4,0.2c0,0.1,0,0.2,0,0.3c0,0,0,0.1,0,0.1
			c0,0.1,0.1,0.1,0.1,0.1c0.1,0.1,0.2,0.2,0.2,0.3c0,0.1,0.1,0.2,0,0.3c0,0.1-0.1,0.1-0.1,0.1c0,0,0,0.1,0,0.2c0.2,0,0.4,0,0.6,0
			c0.1,0,0.3,0.1,0.4,0.1l0.1-0.1c0-0.3,0.1-0.6,0.3-0.8c0,0,0,0,0-0.1c0,0,0,0,0-0.1c-0.1-0.2-0.4-0.2-0.5-0.4
			c0-0.1-0.1-0.1-0.1-0.2s-0.1-0.1-0.2-0.1c-0.1,0-0.1,0.1-0.2,0.2c0-0.1,0-0.1,0.1-0.2c0.1-0.1,0.2-0.2,0.3-0.3c0,0,0,0,0.1-0.1
			c0,0,0-0.1,0-0.1L26,22.7c0,0,0-0.1,0-0.1c0,0,0,0,0,0c0.1-0.1,0.2-0.2,0.3-0.2c0.1-0.1,0.2-0.1,0.3-0.3c0-0.1,0-0.2-0.1-0.3
			l0-0.1c0.1-0.2,0.2-0.4,0.4-0.4c0.1,0,0.2-0.1,0.3-0.1c0.1-0.1,0.2-0.1,0.2-0.3c0-0.1,0-0.2,0-0.2c0-0.1,0.1-0.1,0.1-0.2
			c0.3-0.3,0.4-0.8,0.5-1.2l0-0.1c-0.1-0.3-0.1-0.5-0.1-0.8c0-0.1,0-0.2,0-0.3c0-0.1-0.1-0.2-0.2-0.2c0.2-0.2,0.3-0.4,0.3-0.6
			c0,0,0-0.1,0-0.1c0,0,0,0,0.1,0c0.1,0,0.3,0,0.4,0c0.1,0,0.1,0,0.2,0c0.1,0.1,0.1,0.3,0.2,0.3c0.1,0,0.1,0,0.2-0.1
			s0.1-0.1,0.2-0.2c0.1,0,0.2,0,0.3,0.1c0,0.1,0,0.2,0,0.3c0,0.1-0.1,0.3-0.1,0.4l0,0c0,0.2,0,0.5,0.2,0.6c0.1,0.1,0.2,0.1,0.2,0.1
			c0.1,0.1,0.1,0.3,0.2,0.5c0.1,0.2,0.4,0.3,0.7,0.3c0.1,0,0.1,0,0.2,0c0.1,0,0.2-0.1,0.2-0.1c0.1,0,0.2,0,0.2,0
			c0.1-0.1,0.1-0.2,0.2-0.2c0-0.1-0.1-0.2-0.1-0.3l0,0c0.1-0.1,0.1-0.2,0.2-0.2c0.1,0,0.2,0.1,0.3,0.1c0,0,0.1,0,0.1,0
			c0.1,0,0.2-0.1,0.4-0.1c0.1-0.1,0.3-0.1,0.4-0.2c0,0,0,0,0,0c0.1,0,0.1,0.1,0.2,0.1c0.1,0,0.2-0.1,0.3-0.1c0.1,0,0.1,0.1,0.1,0.1
			c0.1,0.1,0.1,0.2,0.2,0.2l0,0c-0.1,0.1-0.1,0.2,0,0.3c0,0.1,0.1,0.2,0.1,0.3c0,0,0,0,0,0.1c0,0,0,0,0,0c0.1,0.1,0.3,0.2,0.4,0.3
			c0,0.1-0.1,0.1-0.1,0.2c0,0.1,0,0.2,0.1,0.2c0,0,0.1,0,0.1,0c0.1,0,0.2-0.1,0.3-0.1c0.1,0,0.1,0,0.2,0c0.1,0,0.1-0.1,0.1-0.2
			c0-0.1,0.1-0.1,0.1-0.1l0,0c-0.1-0.2-0.2-0.5-0.4-0.7c0-0.1-0.1-0.1-0.1-0.2c0,0,0-0.1,0-0.1c0-0.1,0-0.2,0.1-0.3
			c0-0.1,0.1-0.2,0.2-0.2c0,0,0,0,0.1,0c0,0,0,0,0,0c0-0.2,0-0.3-0.2-0.4c-0.1,0-0.2,0-0.3,0c-0.2,0-0.3,0-0.5,0
			c-0.1-0.1-0.1-0.3-0.2-0.4l0,0c0.1-0.1,0.1-0.3,0.1-0.4c0-0.1,0-0.2,0-0.4c0-0.1,0-0.2,0-0.3c0-0.1,0.1-0.2,0.2-0.2
			c0.1-0.2,0.2-0.4,0.2-0.6c0.3-0.1,0.5-0.1,0.8-0.1l0,0l0.2-0.2l0.2,0.2c0,0,0,0,0,0c0,0,0,0,0,0c0,0,0,0.1-0.1,0.1
			c0,0-0.1,0.1-0.1,0.2c0,0.1,0.1,0.1,0.2,0.2c0.1,0,0.2,0,0.2,0.1c0,0.1,0,0.1,0.1,0.2c0,0,0.1,0,0.1,0c0.1,0,0.3,0,0.4,0
			c0,0,0.1,0,0.1,0c0,0,0,0,0,0c0.1,0,0.2,0.1,0.3,0.1c0.1,0.1,0.2,0.1,0.3,0.1l0.1,0c0-0.3,0.1-0.5,0.1-0.8
			C37.7,15.6,37.7,15.5,37.7,15.5z M23.3,12.6h-3.2v3.2h-2.8v-3.2h-3.2V9.9h3.2V6.6h2.8v3.2h3.2V12.6z"/>
	</g>
</g>
</svg>
