<?xml version="1.0" encoding="utf-8"?>
<!-- Generator: Adobe Illustrator 23.0.2, SVG Export Plug-In . SVG Version: 6.00 Build 0)  -->
<svg version="1.1" id="Calque_1" xmlns="http://www.w3.org/2000/svg" xmlns:xlink="http://www.w3.org/1999/xlink" x="0px" y="0px"
	 viewBox="0 0 38.6 39.2" style="enable-background:new 0 0 38.6 39.2;" xml:space="preserve">
<style type="text/css">
	.st0{fill:#FFFFFF;}
</style>
<g>
	<path class="st0" d="M28.5,8.7c-0.5,0.3-1,0.5-1.6,0.7l-0.1,0c-1.3,0.4-2.6,0.6-3.9,0.7c-1.6,0-2.9-0.4-3.6-1.2
		c-0.7,0.8-2,1.2-3.6,1.2c-1.3,0-2.6-0.2-3.9-0.7c0,0,0,0-0.1,0c-0.5-0.2-1.1-0.4-1.6-0.7c-5.5,2.4-8.6,7.1-8.6,12.9
		c0,9.4,8,17,17.8,17s17.8-7.6,17.8-17C37.1,15.8,34,11.1,28.5,8.7z M13.6,13.1c0.9,0.8,1.4,2,1.3,3.2c-0.1,1.4-0.6,2.7-1.5,3.8
		c-0.6,0.8-1.4,1.5-2.3,2c-0.7,0.4-1.6,0.7-2.4,0.7c-0.7,0-1.5-0.2-2.1-0.7c-0.9-0.8-1.4-2-1.3-3.2c0.1-1.4,0.7-2.7,1.5-3.8
		c0.8-1.1,2-2,3.3-2.4C11.3,12.2,12.6,12.4,13.6,13.1z"/>
	<path class="st0" d="M11.9,8.2L11.9,8.2L11.9,8.2c0,0,0.1,0,0.1,0c0,0,0,0,0,0c3.1,1,5.8,0.7,6.4-0.3c0,0,0,0,0,0c0,0,0-0.1,0-0.1
		c0,0,0,0,0,0v0c0-0.1,0.1-0.1,0.1-0.2c0.2-0.6-0.2-1.3-1-2.1c0,0,0,0,0,0c-1.1-1-2.5-1.7-3.9-2.2c-2.4-0.8-5.7-0.1-7.3,0.3
		C7.4,4.9,9.6,7.3,11.9,8.2z"/>
	<polygon class="st0" points="20.2,8.1 20.1,8.1 20.2,8.1 	"/>
	<path class="st0" d="M19.9,7.6C19.9,7.6,19.9,7.6,19.9,7.6L19.9,7.6C19.9,7.7,19.9,7.7,19.9,7.6C19.9,7.7,19.9,7.7,19.9,7.6
		C19.9,7.6,19.9,7.6,19.9,7.6c0-0.1,0-0.1,0-0.1C19.9,7.5,19.9,7.6,19.9,7.6C19.9,7.6,19.9,7.6,19.9,7.6z"/>
	<path class="st0" d="M19.2,8.8c0,0,0.1,0.1,0.1,0.1c0,0,0.1-0.1,0.1-0.1H19.2z"/>
	<path class="st0" d="M18.7,4.8V2.5c0-0.4,0.3-0.6,0.6-0.6c0.4,0,0.6,0.3,0.6,0.6v2.4C20,4.8,20,4.7,20.1,4.6
		c0.3-0.3,0.7-0.6,1.1-0.9V2.5c0-1.1-0.9-1.9-1.9-1.9c-1.1,0-1.9,0.9-1.9,1.9v1.3c0.4,0.3,0.8,0.6,1.1,0.9
		C18.6,4.7,18.6,4.8,18.7,4.8z"/>
	<path class="st0" d="M21.1,5.5C21.1,5.5,21,5.5,21.1,5.5L21.1,5.5L21.1,5.5C21,5.5,21,5.6,21.1,5.5c-0.9,0.9-1.3,1.6-1.1,2.2
		c0,0.1,0,0.1,0.1,0.2c0,0,0,0,0,0.1c0.7,1,3.3,1.3,6.4,0.3c0,0,0.1,0,0.1,0c0,0,0,0,0,0c2.4-0.8,4.6-3.3,5.6-4.5
		C30.7,3.3,29.1,3,27.6,3c-0.9,0-1.8,0.1-2.6,0.4C23.5,3.8,22.2,4.5,21.1,5.5C21,5.5,21.1,5.5,21.1,5.5z"/>
	<path class="st0" d="M18.7,7.7C18.7,7.7,18.7,7.7,18.7,7.7c0-0.1,0-0.2,0-0.3c0,0,0,0.1,0,0.1C18.6,7.6,18.7,7.6,18.7,7.7L18.7,7.7
		L18.7,7.7L18.7,7.7C18.7,7.8,18.7,7.8,18.7,7.7C18.7,7.8,18.7,7.8,18.7,7.7L18.7,7.7C18.7,7.7,18.7,7.7,18.7,7.7z"/>
	<path class="st0" d="M18.7,7.8L18.7,7.8C18.7,7.8,18.7,7.8,18.7,7.8L18.7,7.8L18.7,7.8z"/>
	<path class="st0" d="M10.6,13.9c-1.1,0.4-2,1.1-2.7,2c-0.7,0.9-1.2,2-1.3,3.1c-0.1,0.8,0.2,1.6,0.8,2.2c1.2,1,3.5,0.1,5-1.8
		c0.7-0.9,1.2-2,1.3-3.1c0.1-0.8-0.2-1.6-0.8-2.2c-0.4-0.3-0.8-0.4-1.3-0.4C11.2,13.7,10.9,13.7,10.6,13.9z"/>
</g>
</svg>
